<svg width="16" height="16" viewBox="0 0 16 16" xmlns="http://www.w3.org/2000/svg">
    <g fill="none" fill-rule="evenodd">
        <path d="M0 16h16V0H0z"/>
        <path d="M14.5 8a6.5 6.5 0 1 1-13 0 6.5 6.5 0 0 1 13 0z" fill="#BABBC0"/>
        <g transform="translate(7.25 4.25)" fill="#FFF">
            <path d="M.75 7.494a.704.704 0 0 1-.525-.225A.704.704 0 0 1 0 6.744a.65.65 0 0 1 .06-.285c.03-.09.09-.18.165-.24.285-.285.78-.285 1.05 0 .075.06.135.15.165.24a.65.65 0 0 1 .06.285c0 .195-.075.39-.225.525a.704.704 0 0 1-.525.225"/>
            <rect width="1.5" height="5.2" rx=".75"/>
        </g>
    </g>
</svg>
