<svg width="28" height="28" viewBox="0 0 28 28" xmlns="http://www.w3.org/2000/svg">
    <g fill="none" fill-rule="evenodd">
        <path d="M0 28h28V0H0z"/>
        <path d="M19.833 4.5H8.166A4.666 4.666 0 0 0 3.5 9.167v4.666A4.666 4.666 0 0 0 8.166 18.5H11.2L14 22l2.8-3.5h3.033a4.667 4.667 0 0 0 4.667-4.667V9.167A4.667 4.667 0 0 0 19.833 4.5" fill="#000"/>
        <path d="M19.833 4.5H8.166A4.666 4.666 0 0 0 3.5 9.167v4.666A4.666 4.666 0 0 0 8.166 18.5H11.2L14 22l2.8-3.5h3.033a4.667 4.667 0 0 0 4.667-4.667V9.167A4.667 4.667 0 0 0 19.833 4.5z" stroke="#000" stroke-width="1.5" stroke-linecap="round" stroke-linejoin="round"/>
        <path stroke="#FFF" stroke-width="1.5" stroke-linecap="round" stroke-linejoin="round" d="M9.5 9h9M9.5 13h9"/>
    </g>
</svg>
