<svg width="28" height="28" viewBox="0 0 28 28" xmlns="http://www.w3.org/2000/svg">
    <g fill="none" fill-rule="evenodd">
        <path d="M1.5 26.5h25v-25h-25z"/>
        <path d="M21.801 22.716a1.018 1.018 0 1 1-2.036 0 1.018 1.018 0 0 1 2.036 0" fill="#E5E6E8"/>
        <path d="M21.801 22.716a1.018 1.018 0 1 1-2.036 0 1.018 1.018 0 0 1 2.036 0z" stroke="#E5E6E8" stroke-width="1.5" stroke-linecap="round" stroke-linejoin="round"/>
        <path d="M11.34 22.716a1.018 1.018 0 1 1-2.037 0 1.018 1.018 0 0 1 2.037 0" fill="#E5E6E8"/>
        <path d="M11.34 22.716a1.018 1.018 0 1 1-2.037 0 1.018 1.018 0 0 1 2.037 0z" stroke="#E5E6E8" stroke-width="1.5" stroke-linecap="round" stroke-linejoin="round"/>
        <path d="M21.583 6.357H7.451l-.629-2.49a.894.894 0 0 0-.866-.673H3.107a.893.893 0 0 0 0 1.785H5.26l.553 2.186v.016l2.505 10.624c.109.462.391.852.793 1.102a1.764 1.764 0 0 0 1.34.216l11.541-2.734a1.765 1.765 0 0 0 1.363-1.723V8.128c0-.976-.795-1.771-1.772-1.771" fill="#E5E6E8"/>
    </g>
</svg>
