<svg width="28" height="28" viewBox="0 0 28 28" xmlns="http://www.w3.org/2000/svg">
    <g fill="none" fill-rule="evenodd">
        <path d="M1.5 26.5h25v-25h-25z"/>
        <path d="m4.272 21.807-.451 1.958a.537.537 0 0 0 .622.649l1.975-.365 1.96-1.877-2.147-2.241-1.96 1.876zM25.12 9.39l-5.394-5.632a2.15 2.15 0 0 0-3.04-.066l-2.104 2.015a2.151 2.151 0 0 0-.066 3.04l.605.63-4.159 3.984-.604-.632a2.151 2.151 0 0 0-3.04-.065l-2.105 2.014a2.152 2.152 0 0 0-.066 3.04l.432.45 3.338 3.487 1.624 1.696a2.15 2.15 0 0 0 3.04.066l2.104-2.015a2.15 2.15 0 0 0 .066-3.04l-.605-.632 4.16-3.983.604.632a2.15 2.15 0 0 0 3.04.066l2.104-2.015a2.15 2.15 0 0 0 .066-3.04" fill="#E5E6E8"/>
    </g>
</svg>
