<svg width="28" height="28" viewBox="0 0 28 28" xmlns="http://www.w3.org/2000/svg">
    <g fill="none" fill-rule="evenodd">
        <path d="M1.5 26.5h25v-25h-25z"/>
        <path d="M14 12.422a4.298 4.298 0 0 0 4.293-4.293A4.298 4.298 0 0 0 14 3.835a4.298 4.298 0 0 0-4.293 4.294A4.298 4.298 0 0 0 14 12.422M15.321 13.639h-2.643c-4.18 0-7.582 3.4-7.582 7.582v1.112c0 1.01.822 1.832 1.833 1.832h14.142c1.01 0 1.832-.822 1.832-1.832V21.22c0-4.181-3.4-7.582-7.582-7.582" fill="#E5E6E8"/>
    </g>
</svg>
