<svg width="28" height="28" viewBox="0 0 28 28" xmlns="http://www.w3.org/2000/svg">
    <g fill="none" fill-rule="evenodd">
        <path d="M1.5 26.5h25v-25h-25z"/>
        <path d="m23.52 12.535-8.35-7.931a1.701 1.701 0 0 0-2.341 0l-8.35 7.931c-.335.32-.528.77-.528 1.233v8.395c0 .938.763 1.7 1.7 1.7h5.55a.723.723 0 0 0 .724-.722v-2.639c0-1.174.88-2.175 1.962-2.232a2.077 2.077 0 0 1 2.189 2.073v2.798c0 .399.323.722.722.722h5.55c.938 0 1.7-.762 1.7-1.7v-8.395c0-.463-.192-.913-.528-1.233" fill="#18191A"/>
    </g>
</svg>
